<?xml version="1.0" encoding="utf-8"?>
<!-- Generator: Adobe Illustrator 16.0.5, SVG Export Plug-In . SVG Version: 6.00 Build 0)  -->
<!DOCTYPE svg PUBLIC "-//W3C//DTD SVG 1.1//EN" "http://www.w3.org/Graphics/SVG/1.1/DTD/svg11.dtd">
<svg version="1.1" id="Layer_1" xmlns="http://www.w3.org/2000/svg" xmlns:xlink="http://www.w3.org/1999/xlink" x="0px" y="0px"
	 width="716.25px" height="138.061px" viewBox="0 0 716.25 138.061" enable-background="new 0 0 716.25 138.061"
	 xml:space="preserve">
<g id="Layer_2">
	<path fill="#221E1F" d="M257.852,138.314h72.125v-7.184h-5.948v-4.078h-3.77V105.45h-3.978v-1.013h-2.907v1.307h-0.8v-0.234h-1.072
		v0.234h-1.327v0.976h-1.521v0.389h-1.838v0.5h0.582v0.185h-0.396v0.255h0.396v6.847h-0.521v6.357h-0.449v-0.975h-1.209v-0.625
		h-4.878v-4.154h-1.971v-1.15h-2.28v0.428h-0.626v-0.562h-0.128V113.9h-0.771v0.313h-0.223v0.562h-0.391v-0.768h-0.938v0.768h-0.299
		v-3.16h-1.23v-0.045l-0.404-0.502H291v-0.409h-0.723v-0.39h-1.267v-1.21h-0.234v1.21h-1.112v0.39h-0.507v0.409h-0.067l-0.343,0.493
		v0.054h-0.565v-2.438h-0.352v-2.573h-0.701v-0.294h-0.372v-0.72h-0.212l-0.052-0.627l-0.703-1.653h-0.116v-0.804h-0.088v-2.612
		h-0.156v2.612h-0.078v0.804h-0.068l-1.221,2.006v0.273h-0.371v0.72h-2.221v0.614l-1.814,1.939v0.172h-0.454v0.47h0.299v0.234
		h-0.271v0.265h0.271v6.838h-2.397v-0.738h-0.322v-1.047h-0.186v1.047h-0.234v0.738h-2.166v-2.319h-3.473v-0.371h0.273v-0.684
		h-0.877v0.684h0.271v0.371h-0.682v-5.813h-0.332V107.5h-0.216v-0.881l-1.497-2.671v-0.912h-0.156v-1.185h-0.176v-1.518h-0.271
		v1.518h-0.109v1.185h-0.127v0.896h-6.713v-0.703v-0.138v-0.428h-0.26v0.565h0.084v0.703h-0.084V138.314L257.852,138.314z
		 M163.854,138.314h93.997V103.93h-0.083v-0.703h0.083v-0.565h-0.287v0.565h0.018v0.703h-3.489v8.913h-2.496v2.029h-1.737v-2.79
		h-0.214v-1.346h-0.138v-0.742h-0.252v-1.015h-0.478v-0.25h-1.134v-0.195h-0.203v0.195h-0.626v0.25h-4.348v-0.487h-0.919v0.487
		h-0.838v5.93h-0.856v1.405h-0.333v0.351h-0.84v0.63h-0.689v0.577h-0.37v-0.587h-0.304v0.587h-1.542v-0.739h-0.684v-3.023h-0.583
		v-0.233h-0.354v0.233h-0.193v-0.389h-0.176v-1.348h-0.568v-5.249h-0.694v-0.271h-1.103v0.134h-0.292v0.127h-0.372v-0.261h-2.25
		v0.29h-1.859v-0.29h-0.564v0.271h-0.51v13.325h-0.176v-1.189c0-0.462-0.378-0.839-0.84-0.839h-0.234
		c-0.461,0-0.838,0.377-0.838,0.839v1.189h-0.215l-1.092,1.21v1.19h-0.089l-0.001-0.229l-0.937-0.822v-0.666h-0.39v0.626h-1.239
		v-0.626h-0.427h-0.053v0.626h-0.586v-0.626h-0.727l-0.956,0.938l0.005,0.781h-0.883v1.103l-4.584,0.815v-1.566H210.3l-1.271-0.877
		v-0.742h-2.379v-0.8h-1.326v-1.034h-0.371v-0.565h-0.483v-0.811h-0.421v-0.127l-0.447-1.077h-2.665l-0.478,1.086v0.118h-0.451
		v0.811h-0.42v0.565h-0.33v4.771h-0.381v0.715h-0.137v0.813h-0.322v-4.936h-0.896v-0.584h-1.015v0.584h-0.896v4.083h-1.702v0.332
		h-0.406v-2.717h-0.428v-0.742h-0.391v-0.625h-0.254v-0.487h-0.584v-0.722h-0.469v-0.604h-0.586v-2.926h-0.371v-0.604h-0.136v-1.055
		h-0.292v-1.13h-0.554v-0.025l-1.349-1.264h-2.722l-1.454,1.272v0.018h-2.723v11.418h-0.211v-2.933h-0.138v-1.19h-0.858v1.19h-1.717
		v-2.556h-0.352v-0.839h-0.155v-0.585h-0.136v-0.683h-2.771v0.683h-0.486v0.585h-0.371v-3.101h-0.469v-1.522h-0.312v-0.817h-1.055
		c0.001-0.027,0.001-0.053,0.001-0.079c0-1.163-1.191-2.106-2.662-2.106c-0.812,0-1.539,0.287-2.027,0.742h-0.304v-0.703h-0.39
		v-0.664h-2.927v27.557H163.854z M163.854,110.752V108.5l1.386,1.126l1.385,1.126H163.854z M84.853,74.24l-3.354,0.195l0.077,1.912
		l-1.365,0.586l0.702,1.092l-0.078,2.029l-0.518,0.479l-0.01,1.579h-3.023l0.01-0.428l-1.189-0.011l-0.01,2.829l0.252,0.233v0.957
		l2.07,1.248l-0.625,9.461h-0.723l0.078,0.331l0.449,0.41l-0.43,5.324l-0.691,0.168l-0.077,0.931l-0.685,0.118l-0.029,0.732
		l-1.795,1.68l-0.039,1.425l0.762,0.682l-0.039,2.867l-1.365,0.821l-0.488,4.817l-8.059,0.118l-0.233,4.685l-4.997,0.156
		l-0.086,4.468H52.31v4.998h-5.947v7.184h117.493v-27.559h-2.888v0.664h-0.428v0.703h-0.508v1.444h-0.195v9.987h-0.663v4.202h-0.78
		v-3.461h-2.146v-0.779h-1.17v-2.732h-0.352v-1.209h-0.233v-0.78h-0.547v-0.585h-0.312v-0.546h-0.312v-0.546h-4.33v0.546h-0.352
		v0.546h-0.312v0.585h-0.468v0.78h-0.586v1.209h-0.156v2.732h-0.585v0.779h-0.118v-1.171h-0.076v-0.121l-0.295-1.732v-0.528h-0.098
		v-1.263h-0.264v1.263h-0.079v0.528h-0.009l-0.397,1.704v0.148h-0.244v2.38h-0.799v-0.976h-0.464v-1.074h-0.164v-0.372h-0.168
		v-0.784h-0.165v1.156h-0.186v1.074h-0.688v-0.683h-1.892v0.683h-1.111v1.424h-0.507v-3.939h-0.117v-2.126h-1.054v-0.702h-0.118
		v-0.161c0-0.372-0.314-0.677-0.701-0.677h-4.564c-0.387,0-0.701,0.305-0.701,0.677v0.161h-0.217v0.702h-0.33v0.645h-0.254v1.691
		l-7.568-0.569v-1.648h-0.176v-1.697h-0.332v-1.481h-0.373l-0.468-0.702h-0.116v-2.428h-0.197v-2.76h-0.242v2.76h-0.156v2.428
		h-0.147l-0.406,0.678v0.024h-0.39v1.481h-0.352v1.697h-0.215v1.381l-1.088-0.083l-0.136-3.817l-6.872-0.715l-0.389-4.568
		l-1.072-0.625l0.037-2.262l0.253-0.566l0.567-0.332l0.039-1.188l-0.451-0.079l-0.877-1.171v-0.663l-0.369-0.039v-0.682
		l-0.488-0.234l-0.117-0.839l-0.526-0.157l-0.198-4.988l0.508-0.5l-0.011-0.312l-0.673-0.06l-0.153-9.181l0.866-0.931l1.015,0.029
		l-0.019-0.988l0.312-0.206l0.021-2.604l-1.113-0.048l-0.01,0.195l-0.577-0.195l-0.029-0.471l-0.837-0.028l-0.013,0.254
		l-0.937-0.265l-0.083-1.296l-0.604-0.411l-0.02-1.755l0.78-1.171l-1.015-0.644l0.02-1.931l-3.608-1.386c0,0,0-2.672,0.176-3.999
		c0.175-1.327,0.663-5.189,0.624-6.009c-0.039-0.818,0.604-1.033,0.976-1.308c0.37-0.272,0.101-1.148,0.374-1.646
		c0.273-0.499,0.215-1.106,0.204-1.527c-0.01-0.42-0.345-6.032-0.325-7.827c0.021-1.794-0.215-3.121-0.272-3.589
		c-0.059-0.468-0.099-0.877,0.058-0.977c0.08-0.214-0.525-2.32-0.447-2.848c0.078-0.527-0.43-1.755-0.41-1.97
		s0.369-0.546,0.195-0.76c-0.176-0.216-0.723-0.977-0.781-1.522c-0.059-0.547-0.37-3.062-1.442-4.584
		c-1.073-1.521-1.874-1.678-1.989-3.219c-0.119-1.541-0.168-1.503,0.125-1.61s0.547-0.363,0.526-0.744c0,0,0.024-0.147,0.118-0.182
		c0.093-0.034,0.059-0.226,0.039-0.265s-0.016-0.216-0.02-0.279s0.189-0.142,0.283-0.137c0.092,0.004,0.443,0.039,0.238-0.397
		c-0.205-0.435-0.209-0.827-0.18-1.091c0.027-0.264,0.166-0.354,0.281-0.401c0.119-0.049,0.344-0.381,0.332-0.724
		c-0.009-0.343-0.096-0.705-0.096-0.705l0.78-0.059l-1.151-0.479l0.371-0.598l2.879-1.371l-3.006,0.833c0,0-0.273-0.099-0.02-0.411
		c0.254-0.313,2.674-2.506,2.674-2.506l-3.19,2.163c0,0,0.554-1.826,0.633-4.985c0.04-0.683,0.155-1.229,0.253-0.917
		c0.099,0.312,0.293,1.19,0.586,1.346c0.312-0.332,0.684-0.468,0.761-1.833c0.272-0.137,0.194-0.352,0.078-0.43
		c-0.116-0.078-0.021-1.404-0.021-1.404s0.49-0.498,0.344-0.84c0.166-0.177,0.166-0.471,0.117-0.666
		c0.117-0.197,0.195-0.617-0.254-0.949c0,0-0.175-0.049-0.175-0.401s0.508-0.303,0.508-0.812c0.644-0.127,1.707-0.519,1.386-1.027
		c0,0-0.186,0.04-0.186-0.52c0-0.558,0.234-0.176,0.165-0.656c-0.067-0.479-1.044-0.675-1.659-0.792
		c-0.01-0.195,0.088-0.195,0.303-0.353c0.215-0.156,1.074-1.292,0.519-1.879c-0.558-0.588-0.919-0.471-0.968-0.822
		c-0.049-0.353-0.381,0.097-0.312,0.46c-0.272,0.049-0.537-0.118-0.76-0.372c-0.226-0.254-0.586-0.245-0.586-0.245
		s0.322,0.265,0.398,0.529c0.08,0.264-0.271,0.499-0.497,0.234c-0.224-0.265-0.243-0.773-0.537-0.872
		c-0.292-0.099-0.497,0.312-0.282,0.638c0.215,0.322,0.273,0.586,0.273,0.752c0,0.167,0.029,0.921,0.37,1.106
		c0.342,0.187,0.478,0.646,0.401,0.793c-0.08,0.146-1.484,0.127-1.621,0.362c-0.137,0.234-0.078,0.323-0.01,0.432
		c0.068,0.107,0.019,0.566,0.019,0.566s-0.448,0.323-0.302,0.646s0.601,0.636,1.123,0.695c0.102,0.133,0.141,0.245,0.01,0.309
		s-0.211,0.376-0.211,0.793c0,0.416,0.074,0.582,0.064,0.934c-0.011,0.354-0.244,0.96-0.362,1.371
		c-0.116,0.411-0.146,1.038-0.263,1.488c-0.117,0.451-2.34,5.535-2.574,6.296c-0.234,0.761-0.312,1.873-0.312,1.873
		s-1.184-0.171-1.76,0.543c-0.575,0.715-0.791,0.812-0.693,2.584c-0.438-0.049-0.995,0.479-0.985,1.224
		c0.009,0.744,0.204,1.527,0.097,1.724c-0.106,0.196-1.145,2.47-1.301,3.992c-0.156,1.521-1.482,4.682-1.756,5.579
		c-0.271,0.896-0.311,3.394,0.469,4.329c0.039,1.873-0.313,7.219-0.74,10.612c-0.156,1.327-0.275,1.912,0.038,2.225
		c0.038,0.74,0.266,1.513,0.03,2.236c-0.233,0.725-0.312,0.803,0.098,1.058c0.41,0.255,0.496,0.528-0.07,1.251
		c-0.565,0.722-1.657,1.678-1.891,2.028s0.273,0,0.02,0.565c-0.254,0.565-0.957,1.092-1.443,1.774
		c-0.488,0.684-0.061,0.684-0.195,0.78c-0.137,0.098-0.274,0.254-0.332,0.546c-0.059,0.293-0.742-0.097-0.801,0.645
		c-0.176,0.488-0.076,0.565-0.214,0.703c-0.138,0.136-0.8,0.604-1.093,0.818s-0.176,0.566-0.02,0.957
		c0.098,0.429,0.06,1.033,0.117,1.658C83.721,73.031,85.28,74.104,84.853,74.24L84.853,74.24z M163.854,108.5v2.252h-2.771
		l1.386-1.126L163.854,108.5z"/>
</g>
<g id="Layer_6">
	<path fill="#010101" d="M241.815,96.607V43.506h6.869l32.49,42.777V43.506h6.5v53.102h-6.869l-32.494-43.152v43.152H241.815z"/>
	<path fill="#010101" d="M340.402,94.527c-4.28,1.636-8.897,2.45-13.851,2.45c-19.232,0-28.853-9.222-28.853-27.665
		c0-17.452,9.283-26.181,27.851-26.181c5.322,0,10.274,0.745,14.853,2.232v5.94c-4.577-1.733-9.283-2.602-14.11-2.602
		c-14.479,0-21.72,6.872-21.72,20.608c0,14.729,7.128,22.098,21.388,22.098c2.275,0,4.803-0.296,7.577-0.896V72.469h6.865V94.527z"
		/>
	<path fill="#010101" d="M351.357,76.108V43.504h6.864v32.604c0,10.198,5.076,15.3,15.229,15.3c10.147,0,15.224-5.102,15.224-15.3
		V43.504h6.869v32.604c0,13.916-7.364,20.868-22.093,20.868C358.721,96.976,351.357,90.024,351.357,76.108L351.357,76.108z"/>
	<path fill="#010101" d="M414.666,43.503v47.533h27.778v5.568h-34.644V43.503H414.666z"/>
	<path fill="#010101" d="M452.359,96.605h-7.129l26.399-60.108l26.401,60.108h-7.614l-6.869-16.711h-17.562l1.896-5.567h13.365
		l-9.913-24.066L452.359,96.605z"/>
	<path fill="#010101" d="M505.274,96.607V43.506h22.649c10.104,0,15.148,4.245,15.148,12.736c0,6.905-4.934,12.021-14.812,15.333
		l18.231,25.031h-9.064L520.538,72.73v-4.493c10.147-1.613,15.224-5.508,15.224-11.699c0-4.898-2.823-7.351-8.468-7.351h-15.151
		v47.419L505.274,96.607L505.274,96.607z"/>
</g>
<g id="Layer_5">
	<g>
		<polygon fill="#DD1E34" points="170.379,2.44 170.379,2.44 170.379,2.44 108.173,24.623 117.66,106.873 170.379,136.071 
			170.379,136.071 170.379,136.071 223.096,106.873 232.584,24.623 		"/>
		<polygon fill="#C32033" points="170.379,2.44 170.379,17.273 170.379,17.206 170.379,84.891 170.379,84.891 170.379,136.071 
			170.379,136.071 223.096,106.873 232.584,24.623 		"/>
		<path fill="#FFFFFF" d="M170.379,17.206l-38.887,87.195l0,0h14.498l0,0l7.818-19.511h33.006l7.818,19.511l0,0h14.5l0,0
			L170.379,17.206L170.379,17.206L170.379,17.206L170.379,17.206L170.379,17.206z M181.738,72.864H159.02l11.359-27.328
			L181.738,72.864z"/>
	</g>
</g>
<g id="Layer_4">
	<g enable-background="new    ">
		<path fill="#231F20" d="M572.367,58.577l16.111,33.54V67.936c0-3.12-0.021-4.839-0.061-5.16c-0.359-2.079-1.36-3.12-3-3.12
			c-0.32,0-0.801,0.051-1.439,0.15c-0.641,0.101-1.121,0.15-1.44,0.15c-0.521,0-0.97-0.189-1.351-0.57
			c-0.38-0.38-0.569-0.83-0.569-1.35c0-1.44,0.899-2.16,2.7-2.16c0.359,0,0.619,0.021,0.779,0.06l2.701,0.36
			c1.199,0.16,2.318,0.24,3.359,0.24c1.039,0,2.42-0.11,4.141-0.33c0.6-0.073,1.299-0.164,2.1-0.275c0.08,0,0.219-0.018,0.42-0.055
			c0.159,0,0.3,0,0.42,0c1.719,0,2.58,0.689,2.58,2.069c0,1.341-0.814,2.011-2.443,2.011c-0.285,0-0.51,0-0.672,0h-0.611
			c-1.222,0-2.016,0.26-2.383,0.778c-0.366,0.52-0.59,1.658-0.671,3.415v3.414v6.109v15.995c0,2.756-0.312,4.693-0.935,5.811
			s-1.699,1.677-3.225,1.677c-1.971,0-3.639-1.399-5.005-4.199l-15.796-32.7v27.899c0,3,1.02,4.5,3.061,4.5
			c0.319,0,0.799-0.029,1.439-0.09c0.639-0.06,1.119-0.09,1.439-0.09c1.28,0,1.92,0.642,1.92,1.922c0,1.359-0.899,2.038-2.699,2.038
			c-0.08,0-0.201,0-0.36,0c-0.2-0.04-0.341-0.06-0.42-0.06l-2.46-0.36c-1.36-0.199-2.641-0.3-3.84-0.3
			c-1.041,0-2.381,0.101-4.02,0.3l-2.94,0.36c-0.081,0-0.22,0.02-0.42,0.06c-0.2,0-0.36,0-0.479,0c-1.721,0-2.58-0.699-2.58-2.1
			c0-1.239,0.639-1.86,1.92-1.86c0.199,0,0.739,0.04,1.619,0.12c0.439,0.12,0.859,0.18,1.26,0.18c2.041,0,3.061-1.5,3.061-4.5
			v-4.199v-5.28v-5.16v-9.48c0-3-1.032-4.5-3.097-4.5c-0.277,0-0.675,0.041-1.19,0.12c-0.755,0.12-1.311,0.181-1.668,0.181
			c-1.27,0-1.904-0.66-1.904-1.98c0-1.399,0.857-2.1,2.574-2.1c0.24,0,0.559,0.021,0.959,0.06c1.996,0.201,3.533,0.3,4.611,0.3
			c0.598,0,1.496-0.06,2.694-0.18s2.097-0.18,2.696-0.18c1.237,0,2.056,0.42,2.455,1.26L572.367,58.577z"/>
		<path fill="#231F20" d="M619.918,84.166c0-0.16,0-0.542,0-1.145c-0.041-0.642-0.061-1.184-0.061-1.626l-11.641-18.487
			c-0.76-1.204-1.24-1.907-1.439-2.107c-0.6-0.603-1.34-0.904-2.22-0.904c-0.479,0-0.841,0.081-1.08,0.24c-0.12,0-0.3,0-0.54,0
			c-0.28,0-0.48,0-0.6,0c-1.841,0-2.76-0.699-2.76-2.1c0-1.44,0.8-2.16,2.399-2.16c0.64,0,1.44,0.08,2.399,0.24
			c1.92,0.32,3.721,0.479,5.4,0.479c1.24,0,3.1-0.18,5.58-0.54c0.84-0.12,1.561-0.18,2.16-0.18c1.64,0,2.46,0.68,2.46,2.039
			c0,1.32-0.98,1.98-2.94,1.98h-0.6h-1.5h-1.2c-0.479-0.039-0.72,0.12-0.72,0.48c0,0.16,0.02,0.27,0.061,0.33
			c0.039,0.06,0.139,0.23,0.299,0.51l9.181,15.6l9.3-15.6c0.199-0.319,0.301-0.64,0.301-0.96c0-0.36-0.262-0.54-0.781-0.54h-0.119
			l-1.08,0.18l-1.561,0.145c-0.68,0.063-1.199,0.096-1.56,0.096c-1.641,0-2.46-0.71-2.46-2.13s0.799-2.13,2.4-2.13
			c0.6,0,1.319,0.06,2.16,0.18c2.238,0.32,4.179,0.48,5.819,0.48c1.72,0,3.62-0.16,5.7-0.48c0.799-0.12,1.479-0.18,2.039-0.18
			c1.521,0,2.281,0.7,2.281,2.1c0,1.281-0.741,1.92-2.221,1.92c-0.6,0-1.061-0.039-1.38-0.12c-0.64-0.079-1.08-0.12-1.319-0.12
			c-1.041,0-1.881,0.48-2.521,1.44l-0.899,1.38l-11.82,18.54v2.521c0,4.08,0.17,6.62,0.51,7.619c0.34,1.001,1.189,1.5,2.55,1.5
			c0.319,0,0.81-0.049,1.47-0.149c0.66-0.1,1.15-0.15,1.471-0.15c1.238,0,1.859,0.641,1.859,1.92c0,1.44-0.9,2.16-2.699,2.16
			c-0.041,0-0.16,0-0.36,0c-0.161-0.04-0.3-0.06-0.421-0.06l-3.299-0.42c-1.24-0.16-2.461-0.24-3.66-0.24
			c-1.281,0-2.5,0.08-3.66,0.24l-3.061,0.42c-0.08,0-0.2,0.02-0.359,0.06c-0.201,0-0.34,0-0.42,0c-1.801,0-2.7-0.699-2.7-2.1
			c0-1.32,0.64-1.98,1.92-1.98c0.319,0,0.79,0.051,1.41,0.15c0.62,0.101,1.089,0.149,1.409,0.149c1.681,0,2.701-1.062,3.061-3.19
			C619.896,89.103,619.918,87.337,619.918,84.166z"/>
		<path fill="#231F20" d="M664.377,54.797c4.441,0,8.061,1.7,10.861,5.1V59.22c0-0.204,0-0.431,0-0.676
			c-0.081-0.246-0.121-0.389-0.121-0.431c-0.08-0.9-0.119-1.311-0.119-1.229c0-1.393,0.62-2.089,1.861-2.089
			c1.318,0,1.979,0.84,1.979,2.52c0,0.321-0.041,1.281-0.12,2.88c-0.24,2.001-0.36,3.381-0.36,4.141c0,1.08,0.068,2.181,0.205,3.3
			l0.275,2.28v0.6c0,1.8-0.721,2.7-2.16,2.7c-1.561,0-2.32-0.853-2.28-2.559v-2.143c0.08-2.855-0.817-5.177-2.692-6.961
			c-1.875-1.785-4.329-2.678-7.361-2.678c-3.949,0-7.041,1.521-9.275,4.56c-2.234,3.04-3.351,7.24-3.351,12.601
			c0,5.48,1.149,9.75,3.45,12.81c2.299,3.06,5.51,4.59,9.63,4.59c2.239,0,4.249-0.54,6.03-1.62c1.779-1.08,3.029-2.499,3.75-4.26
			c0.479-1.159,0.72-2.72,0.72-4.68c0-1.84,0.759-2.76,2.28-2.76c1.639,0,2.459,0.92,2.459,2.76c0,4.28-1.48,7.78-4.439,10.5
			c-2.961,2.721-6.779,4.08-11.46,4.08c-5.399,0-9.71-1.899-12.931-5.7c-3.22-3.8-4.83-8.859-4.83-15.18
			c0-6.52,1.65-11.78,4.951-15.78C654.627,56.797,658.978,54.797,664.377,54.797z"/>
	</g>
</g>
</svg>
