<?xml version="1.0" encoding="utf-8"?>
<!-- Generator: Adobe Illustrator 22.0.1, SVG Export Plug-In . SVG Version: 6.00 Build 0)  -->
<svg version="1.1" id="Layer_1" xmlns="http://www.w3.org/2000/svg" xmlns:xlink="http://www.w3.org/1999/xlink" x="0px" y="0px"
	 viewBox="0 0 3779.4 1023.1" style="enable-background:new 0 0 3779.4 1023.1;" xml:space="preserve">
<style type="text/css">
	.st0{fill:#1B1B1B;}
	.st1{fill:#FFFFFF;}
</style>
<g>
	<g>
		<g>
			<g>
				<g>
					<path class="st0" d="M1460.2,429.1c23.8,30.2,35.7,69,35.7,116.7c0,49.4-11.7,90.3-35.2,122.8c-23.5,32.5-56.2,48.7-98.2,48.7
						c-26.4,0-47.6-5.2-63.6-15.7c-9.6-6.2-19.9-17.1-31.1-32.7v40h-81.9V279.5h83.1v152.8c10.6-14.8,22.2-26.1,34.9-33.8
						c15.1-9.7,34.2-14.6,57.5-14.6C1403.5,383.9,1436.4,399,1460.2,429.1z M1390.7,622.7c12-17.3,17.9-40.1,17.9-68.2
						c0-22.6-2.9-41.2-8.8-56c-11.2-28-31.8-42-61.7-42c-30.4,0-51.3,13.7-62.6,41.1c-5.9,14.6-8.8,33.4-8.8,56.6
						c0,27.2,6.1,49.8,18.2,67.7c12.1,17.9,30.7,26.8,55.6,26.8C1362,648.7,1378.7,640.1,1390.7,622.7z"/>
					<path class="st0" d="M1639.1,353h-84.3v-76.7h84.3V353z M1554.8,390.9h84.3v317.9h-84.3V390.9z"/>
					<path class="st0" d="M1876.8,390.6c20.2,8.4,36.5,23.7,48.9,46.1v-45.8h81.1v301.6c0,41-6.9,71.9-20.7,92.8
						c-23.7,35.8-69.2,53.6-136.5,53.6c-40.6,0-73.8-8-99.5-23.9c-25.7-16-39.9-39.8-42.6-71.5h90.4c2.3,9.7,6.1,16.7,11.4,21
						c8.9,7.6,24,11.4,45.2,11.4c29.9,0,50-10,60.1-30c6.6-12.8,9.9-34.4,9.9-64.7v-20.4c-8,13.6-16.5,23.8-25.7,30.6
						c-16.5,12.6-38,19-64.5,19c-40.8,0-73.5-14.3-97.8-43c-24.4-28.7-36.6-67.5-36.6-116.5c0-47.2,11.7-86.9,35.2-119.1
						s56.8-48.3,99.9-48.3C1851.1,383.3,1865,385.7,1876.8,390.6z M1905.1,618.5c13.4-14.7,20-38.1,20-70.1c0-30.1-6.3-53.1-19-68.8
						c-12.7-15.7-29.7-23.6-51-23.6c-29.1,0-49.1,13.7-60.1,41.1c-5.8,14.6-8.7,32.6-8.7,53.9c0,18.5,3.1,34.9,9.3,49.3
						c11.2,26.8,31.4,40.3,60.4,40.3C1875.4,640.5,1891.8,633.2,1905.1,618.5z"/>
					<path class="st0" d="M2079.8,397.9h51.3v41.4c10.5-14.2,22-25.2,34.5-32.9c17.7-11.7,38.6-17.5,62.6-17.5
						c35.5,0,65.6,13.6,90.4,40.7c24.8,27.1,37.1,65.9,37.1,116.2c0,68.1-17.9,116.7-53.6,145.8c-22.6,18.5-49,27.7-79.1,27.7
						c-23.6,0-43.4-5.2-59.4-15.5c-9.4-5.8-19.8-15.8-31.3-30v159.5h-52.5V397.9z M2277.3,642.7c16.3-20.5,24.4-51.2,24.4-92
						c0-24.9-3.6-46.3-10.8-64.1c-13.7-34.4-38.6-51.6-74.9-51.6c-36.5,0-61.5,18.2-74.9,54.6c-7.2,19.4-10.8,44.1-10.8,74.1
						c0,24.1,3.6,44.6,10.8,61.5c13.6,32.3,38.6,48.4,74.9,48.4C2240.5,673.5,2261,663.2,2277.3,642.7z"/>
					<path class="st0" d="M2583.7,519.7c12.1-1.5,20.1-6.6,24.2-15.1c2.3-4.7,3.5-11.4,3.5-20.2c0-18-6.4-31-19.1-39.1
						c-12.7-8.1-30.9-12.1-54.6-12.1c-27.4,0-46.8,7.4-58.2,22.3c-6.4,8.2-10.6,20.4-12.5,36.6h-49c1-38.6,13.4-65.5,37.4-80.6
						c24-15.1,51.8-22.7,83.5-22.7c36.7,0,66.5,7,89.4,21c22.7,14,34.1,35.8,34.1,65.4v180c0,5.5,1.1,9.8,3.3,13.1
						c2.2,3.3,7,4.9,14.1,4.9c2.3,0,5-0.1,7.9-0.4c2.9-0.3,6-0.7,9.3-1.3v38.8c-8.2,2.3-14.4,3.8-18.7,4.4
						c-4.3,0.6-10.1,0.9-17.5,0.9c-18.1,0-31.2-6.4-39.4-19.2c-4.3-6.8-7.3-16.4-9-28.9c-10.7,14-26.1,26.2-46.1,36.5
						c-20,10.3-42.1,15.4-66.2,15.4c-29,0-52.6-8.8-71-26.4c-18.4-17.6-27.6-39.6-27.6-66c0-28.9,9-51.4,27.1-67.3
						c18.1-15.9,41.8-25.7,71.2-29.4L2583.7,519.7z M2473.2,661.6c11.1,8.7,24.2,13.1,39.4,13.1c18.5,0,36.4-4.3,53.7-12.8
						c29.2-14.2,43.7-37.4,43.7-69.6V550c-6.4,4.1-14.7,7.5-24.7,10.2c-10.1,2.7-20,4.7-29.7,5.9l-31.7,4.1
						c-19,2.5-33.3,6.5-42.9,11.9c-16.2,9.1-24.4,23.7-24.4,43.6C2456.6,640.9,2462.1,652.8,2473.2,661.6z"/>
					<path class="st0" d="M2748.5,396.4h49.9v44.3c14.8-18.3,30.4-31.4,47-39.4c16.5-8,34.9-12,55.1-12c44.3,0,74.3,15.5,89.8,46.4
						c8.5,16.9,12.8,41.1,12.8,72.6v200.4h-53.4V511.9c0-19.1-2.8-34.4-8.5-46.1c-9.3-19.4-26.3-29.2-50.8-29.2
						c-12.4,0-22.7,1.3-30.6,3.8c-14.4,4.3-27,12.8-37.9,25.7c-8.7,10.3-14.4,21-17.1,31.9c-2.6,11-3.9,26.7-3.9,47.1v163.6h-52.5
						V396.4z"/>
					<path class="st0" d="M3252.3,406c9.3,5.8,19.8,16,31.7,30.6V278.9h50.5v429.9h-47.2v-43.5c-12.2,19.2-26.6,33.2-43.3,41.7
						c-16.7,8.6-35.7,12.8-57.2,12.8c-34.7,0-64.7-14.6-90.1-43.9c-25.4-29.3-38.1-68.2-38.1-116.8c0-45.5,11.6-84.9,34.7-118.3
						c23.1-33.3,56.2-50,99.2-50C3216.3,390.9,3236.3,395.9,3252.3,406z M3135.1,640.2c14.1,22.6,36.8,33.8,67.9,33.8
						c24.2,0,44.1-10.4,59.6-31.4c15.6-20.9,23.4-50.9,23.4-90c0-39.5-8-68.7-24.1-87.6c-16.1-19-35.9-28.4-59.5-28.4
						c-26.3,0-47.6,10.1-64,30.3c-16.3,20.2-24.5,50-24.5,89.2C3114,589.7,3121,617.7,3135.1,640.2z"/>
					<path class="st0" d="M3580.3,519.7c12.1-1.5,20.1-6.6,24.2-15.1c2.3-4.7,3.5-11.4,3.5-20.2c0-18-6.3-31-19.1-39.1
						c-12.7-8.1-30.9-12.1-54.6-12.1c-27.4,0-46.8,7.4-58.2,22.3c-6.4,8.2-10.6,20.4-12.5,36.6h-49c1-38.6,13.4-65.5,37.4-80.6
						c24-15.1,51.8-22.7,83.5-22.7c36.7,0,66.5,7,89.4,21c22.7,14,34.1,35.8,34.1,65.4v180c0,5.5,1.1,9.8,3.3,13.1
						c2.2,3.3,7,4.9,14.1,4.9c2.3,0,5-0.1,7.9-0.4c2.9-0.3,6-0.7,9.3-1.3v38.8c-8.2,2.3-14.4,3.8-18.7,4.4
						c-4.3,0.6-10.1,0.9-17.5,0.9c-18.1,0-31.2-6.4-39.4-19.2c-4.3-6.8-7.3-16.4-9-28.9c-10.7,14-26.1,26.2-46.1,36.5
						c-20,10.3-42.1,15.4-66.2,15.4c-29,0-52.6-8.8-71-26.4c-18.4-17.6-27.6-39.6-27.6-66c0-28.9,9-51.4,27.1-67.3
						c18.1-15.9,41.8-25.7,71.2-29.4L3580.3,519.7z M3469.8,661.6c11.1,8.7,24.2,13.1,39.4,13.1c18.5,0,36.4-4.3,53.7-12.8
						c29.2-14.2,43.7-37.4,43.7-69.6V550c-6.4,4.1-14.7,7.5-24.7,10.2c-10.1,2.7-20,4.7-29.7,5.9l-31.7,4.1
						c-19,2.5-33.3,6.5-42.9,11.9c-16.2,9.1-24.4,23.7-24.4,43.6C3453.2,640.9,3458.7,652.8,3469.8,661.6z"/>
				</g>
			</g>
		</g>
	</g>
	<g>
		<g>
			<g>
				<g>
					<path class="st1" d="M965.4,570.9c-13.7,47.9-27.3,78.5-58.4,102.4l-31,136.3L658,916.6H430.7L213.5,810.1l-39.7-143.3
						c-25.9-23-38.3-52.4-50.8-95.9l-13-43.5l-14.6-7.8l-9.7-71c-1-23.2,13.3-43.8,34.7-50.2c4.9-1.5,25.1-7.3,61.6-11.5l3.5-12.3
						l-27.8-25.8c-51.8-56.4-48.5-144.4,7.6-196.8l8.1-7.5c26-24.2,59.8-37.6,95.4-37.6c38.6,0,75.9,16.2,102.3,44.4l21.6,23.2
						l152-30.3l143,30.3l21.6-23.2c26.3-28.2,63.6-44.4,102.3-44.4c35.5,0,69.4,13.3,95.4,37.6l8.1,7.6c27.3,25.4,43,60,44.3,97.3
						c1.3,37.3-12,72.9-37.5,100.2l-27,25l3.2,11.5c40.1,4,62.9,10.2,69.9,12.3c21.4,6.3,35.8,26.9,34.9,50.1l-9.7,71.2l-14.6,7.8
						L965.4,570.9z"/>
				</g>
			</g>
		</g>
		<path class="st0" d="M649.1,879.2l193.8-95.4l30.3-133.5c0.3-0.2,0.7-0.4,1-0.6c27.4-17,39.6-37,54.6-89.2l2.2-7.8
			c12.5-43.7,14.9-51.1,24.1-56l2.9-1.5l6.6-47.4l0-0.7c0.2-4.9-2.1-10.6-7.7-12.2c-0.4-0.1-29.1-9.4-88.5-13l-16.8-59.6l42.2-38.8
			c38.3-41,36.1-105.4-5-143.7l-8-7.5c-41-38.3-105.4-36.1-143.7,5l-36.4,39L544.3,183l-165.1,33L343,177.3
			c-38.3-41.1-102.6-43.3-143.7-5l-8.1,7.5c-41,38.3-43.3,102.6-5,143.7l42.2,38.8l-16.9,60.1c-54.3,3.9-79.8,12.3-80.1,12.4
			c-5.6,1.6-7.9,7.3-7.7,12.2l6.7,48.1l2.9,1.5c9.2,4.9,11.6,12.3,24.1,56.1l2.2,7.7c13.6,47.5,25,68.3,47.6,84.5l38.4,138.8
			l193.8,95.4H649.1z M755.6,645.9l-1.1,0c-47.6,0-77.4-16.7-87.9-23.9c-16.8-11.4-37.6-36.5-45.4-55c-7.9-18.7-11.5-53.7-6.9-68
			c4.4-14,25.7-22.8,41.4-28.2c31.8-11,87-15.9,87.4-16c16.8-0.8,32.2-1.3,46-1.3c13.4,0,25.6,0.4,36.3,1.2
			c15.8,1.2,28.3,3.3,38.3,6.4c14.4,4.4,20.9,10.3,25.5,15.4c5.2,5.9,12.9,23.8,5.6,77.1c-3,21.6-9.1,38.5-18.6,51.8
			c-4.9,6.9-10.7,12.7-17.2,17.4c-7,5-15.6,9.2-25.6,12.6C813,642.2,787,645.7,755.6,645.9z M304.4,279.8l240-52.7l231.5,52.7
			L822,420.4c-2.6,0-5.1,0-7.7,0c-4.7,0-9.5,0.1-14.2,0.2c-34,0.6-68.2,3.3-102.3,8.2c-17.1,2.4-34.2,5.3-51.3,8.8
			c-15.5,3.4-28,6.5-39.1,9.2c-24.4,6.1-40.4,10.1-63.1,10.2c-22.8,0-38.9-4.1-63.3-10.2c-11-2.7-23.5-5.9-39.1-9.3
			c-19.2-3.9-38.5-7.2-57.8-9.7c-34.7-4.7-69.6-7.1-104.2-7.4c-1.9,0-3.8-0.1-5.7-0.1c-5.5,0-10.8,0-16.1,0.2L304.4,279.8z
			 M299.3,453.6c13.7,0,29.3,0.4,45.9,1.3c0.6,0.1,55.8,5,87.6,16c15.6,5.4,37,14.2,41.4,28.2c4.6,14.3,1,49.2-6.9,68
			c-7.8,18.4-28.5,43.6-45.3,55c-10.6,7.2-40.4,23.9-88,23.9l-1.1,0c-36.2-0.2-65.2-4.8-86.3-13.8c-6.5-2.7-12.1-5.8-16.8-9.2
			c-9.9-7.1-18-16.7-23.9-28.4c-5.8-11.4-9.7-24.8-12-40.8c-7.4-53.2,0.4-71.1,5.6-77.1c3.3-3.7,8.2-8.4,17.4-12.4
			c9.3-4,21.8-6.8,38-8.5C267.4,454.3,282.4,453.6,299.3,453.6z M449.4,844.2l-175.6-86.4l-23.3-94.3c22.8,5.7,51.1,9.1,79.7,9.1
			c13.1,0,25.7-0.7,37.6-2.1c68.5-8.1,102.8-51.1,109-59.6c13.6-18.8,29-52.3,42.2-82.7c4.7-10.7,22.9-11.2,25.4-11.2l1.9,0
			c5.2,0.3,19.4,2,23.3,11.1c13.2,30.3,28.6,63.9,42.2,82.7c6.2,8.5,40.4,51.5,109,59.6c11.9,1.4,24.5,2.1,37.6,2.1
			c25,0,49.8-2.6,70.9-7.1l-22.9,92.3l-167.1,86.4H449.4z"/>
		<path d="M553.6,743.9c22.8-2,78.5-10.7,73.6-44.6c-1.8-10.9-10-34.8-82.9-19.2c-73-15.6-81.2,8.3-82.9,19.2
			c-4.9,33.9,50.7,42.6,73.5,44.6v31.3h-73.1l12.9,24.5h139.2l12.9-24.5h-73.1V743.9z"/>
	</g>
</g>
</svg>
