<?xml version="1.0" encoding="UTF-8" standalone="no"?>
<svg width="274px" height="104px" viewBox="0 0 274 104" version="1.1" xmlns="http://www.w3.org/2000/svg" xmlns:xlink="http://www.w3.org/1999/xlink">
    <!-- Generator: Sketch 40.2 (33826) - http://www.bohemiancoding.com/sketch -->
    <title>Slice 1</title>
    <desc>Created with Sketch.</desc>
    <defs></defs>
    <g id="Page-1" stroke="none" stroke-width="1" fill="none" fill-rule="evenodd">
        <g id="budacode-logo" fill="#1C6274">
            <g id="Layer_1">
                <path d="M273.239,58.957 L273.239,64.141 L255.277,64.141 L255.277,38.657 L272.59,38.657 L272.59,43.839 L260.892,43.839 L260.892,48.591 L271.943,48.591 L271.943,53.775 L260.892,53.775 L260.892,58.959 L273.239,58.959 L273.239,58.957 Z M239.076,64.141 L229.897,64.141 L229.897,38.657 L238.32,38.657 C246.527,38.657 253.402,42.147 253.402,51.471 C253.402,59.713 246.672,64.141 239.076,64.141 L239.076,64.141 Z M238.824,43.838 L235.512,43.838 L235.512,58.957 L238.428,58.957 C243.647,58.957 247.571,56.977 247.571,51.182 C247.571,46.178 243.576,43.838 238.824,43.838 L238.824,43.838 Z M214.488,64.787 C206.533,64.787 200.738,59.568 200.738,51.398 C200.738,43.226 206.533,38.007 214.488,38.007 C222.443,38.007 228.239,43.226 228.239,51.398 C228.239,59.568 222.443,64.787 214.488,64.787 L214.488,64.787 Z M214.488,43.191 C209.701,43.191 206.569,46.646 206.569,51.398 C206.569,56.148 209.701,59.605 214.488,59.605 C219.276,59.605 222.407,56.148 222.407,51.398 C222.407,46.646 219.276,43.191 214.488,43.191 L214.488,43.191 Z M191.448,43.191 C187.201,43.191 184.069,46.646 184.069,51.398 C184.069,56.148 187.201,59.605 191.268,59.605 C193.536,59.605 195.372,58.597 196.524,56.869 L201.203,60.361 C199.08,63.384 195.48,64.787 191.988,64.787 C184.033,64.787 178.238,59.568 178.238,51.398 C178.238,43.226 184.033,38.007 191.988,38.007 C194.832,38.007 198.431,38.978 200.592,41.749 L196.273,45.278 C195.156,43.947 193.536,43.191 191.448,43.191 L191.448,43.191 Z M172.872,64.141 L170.677,58.741 L160.778,58.741 L158.655,64.141 L152.464,64.141 L163.479,38.657 L168.123,38.657 L179.209,64.141 L172.872,64.141 L172.872,64.141 Z M165.637,46.07 L162.541,53.99 L168.769,53.99 L165.637,46.07 L165.637,46.07 Z M139.105,64.141 L129.926,64.141 L129.926,38.657 L138.349,38.657 C146.556,38.657 153.431,42.147 153.431,51.471 C153.432,59.713 146.7,64.141 139.105,64.141 L139.105,64.141 Z M138.854,43.838 L135.542,43.838 L135.542,58.957 L138.458,58.957 C143.677,58.957 147.601,56.977 147.601,51.182 C147.601,46.178 143.605,43.838 138.854,43.838 L138.854,43.838 Z M116.174,64.787 C109.082,64.787 105.41,60.324 105.41,54.312 L105.41,38.656 L111.026,38.656 L111.026,54.097 C111.026,57.228 113.185,59.605 116.173,59.605 C119.124,59.605 121.284,57.228 121.284,54.097 L121.284,38.656 L126.899,38.656 L126.899,54.312 C126.9,60.324 123.229,64.787 116.174,64.787 L116.174,64.787 Z M104.256,57.049 C104.256,62.377 99.217,64.141 94.682,64.141 L84.244,64.141 L84.244,38.657 L93.747,38.657 C98.21,38.657 103.069,39.593 103.069,45.136 C103.069,47.98 101.305,49.923 98.678,50.751 L98.678,50.823 C102.025,51.254 104.256,53.738 104.256,57.049 L104.256,57.049 Z M93.674,43.406 L89.859,43.406 L89.859,48.842 L93.926,48.842 C95.654,48.842 97.453,48.123 97.453,46.071 C97.453,43.947 95.438,43.406 93.674,43.406 L93.674,43.406 Z M94.105,53.594 L89.858,53.594 L89.858,59.389 L94.897,59.389 C96.662,59.389 98.64,58.633 98.64,56.401 C98.641,53.99 95.941,53.594 94.105,53.594 L94.105,53.594 Z M53.151,78.141 C52.191,78.141 51.323,77.752 50.691,77.127 L50.651,77.141 L20.651,54.141 L20.651,54.084 C20.034,53.453 19.651,52.592 19.651,51.641 C19.651,50.688 20.034,49.827 20.651,49.196 L20.651,49.141 L50.651,26.141 L50.691,26.153 C51.323,25.528 52.191,25.141 53.151,25.141 C54.907,25.141 56.347,26.438 56.599,28.123 L56.651,28.141 L56.651,75.141 L56.599,75.159 C56.348,76.844 54.907,78.141 53.151,78.141 L53.151,78.141 Z M36.651,29.141 L35.887,29.793 L10.651,49.141 L10.651,49.196 C10.034,49.827 9.651,50.688 9.651,51.641 C9.651,52.592 10.034,53.454 10.651,54.084 L10.651,54.141 L35.887,73.489 L36.651,74.141 L36.651,74.196 C37.268,74.827 37.651,75.688 37.651,76.641 C37.651,77.592 37.268,78.454 36.651,79.084 L36.651,79.141 L6.651,102.141 L6.611,102.127 C5.979,102.752 5.111,103.141 4.151,103.141 C2.395,103.141 0.955,101.844 0.703,100.159 L0.651,100.141 L0.651,51.141 L0.651,3.141 L0.703,3.123 C0.955,1.437 2.395,0.141 4.151,0.141 C5.111,0.141 5.979,0.528 6.611,1.153 L6.651,1.141 L36.651,24.141 L36.651,24.196 C37.268,24.827 37.651,25.688 37.651,26.641 C37.651,27.592 37.268,28.454 36.651,29.084 L36.651,29.141 L36.651,29.141 Z" id="Shape"></path>
            </g>
        </g>
    </g>
</svg>