<?xml version="1.0" encoding="utf-8"?>
<!-- Generator: Adobe Illustrator 22.0.1, SVG Export Plug-In . SVG Version: 6.00 Build 0)  -->
<svg version="1.1" id="Layer_1" xmlns="http://www.w3.org/2000/svg" xmlns:xlink="http://www.w3.org/1999/xlink" x="0px" y="0px"
	 viewBox="0 0 512 512" enable-background="new 0 0 512 512" xml:space="preserve">
<g>
	<g>
		<path fill="#478AFF" d="M256,81.8c-36.8,0-66.8,30-66.8,66.8c0,36.8,30,66.8,66.8,66.8s66.8-30,66.8-66.8
			C322.8,111.8,292.8,81.8,256,81.8z"/>
		<g>
			<circle fill="#478AFF" cx="351.9" cy="57.3" r="30.4"/>
		</g>
		<path fill="#478AFF" d="M389.4,87.9l-1.3-2.8l-2,2.3c-5,5.7-11.3,10-18.4,12.6l-1.9,0.7l0.8,1.9c6.1,14.6,9.2,30.1,9.2,46
			c0,66-53.7,119.8-119.8,119.8s-119.8-53.7-119.8-119.8S190,28.9,256,28.9c17.9,0,35.2,3.9,51.3,11.6l1.9,0.9l0.8-1.9
			c2.9-6.9,7.6-13,13.5-17.7l2.4-1.9l-2.7-1.4C302.3,7.5,279.6,2,256,2c-80.8,0-146.6,65.8-146.6,146.6
			c0,80.8,65.8,146.6,146.6,146.6s146.6-65.8,146.6-146.6C402.6,127.5,398.2,107.1,389.4,87.9z"/>
	</g>
	<g>
		<g>
			<rect x="6" y="378.5" fill="#478AFF" width="30.9" height="127.7"/>
		</g>
		<g>
			<rect x="339.7" y="378.5" fill="#478AFF" width="30.9" height="127.7"/>
		</g>
		<path fill="#478AFF" d="M268.3,375.5c-21.7,0-38.5,13.1-42.4,16.7v0l-1.9-13.7h-25.8v127.7h30.9l0,0l0-77.3
			c0-15.1,20.6-27.6,35.7-27.6c14.8,0,26.3,14.4,26.3,31.6v73.3h30.9v-70.3C321.9,402.5,307.4,375.5,268.3,375.5z"/>
		<path fill="#478AFF" d="M451.7,483c-23.2,0-38.6-18.2-38.6-40.6c0-22.4,15.4-40.6,38.6-40.6c19.8,0,31.9,19.2,31.9,19.2l22.4-15
			c-6.5-10-13.9-16-24.2-22.1c-7.5-4.5-17.7-8.3-29.1-8.3c-38.7,0-68.2,29-68.4,66.8c0.2,37.8,29.7,66.8,68.4,66.8
			c11.4,0,21.6-3.8,29.1-8.3c10.2-6.2,17.7-12.2,24.2-22.1l-22.4-15C483.6,463.8,471.6,483,451.7,483z"/>
		<path id="path3000_1_" fill="#478AFF" d="M117.6,375.5c-39,0-66.9,30.6-66.9,66.3c0,36.2,27.1,67.4,67.3,67.4
			c36.4,0,66.3-28,66.3-66.6C184.3,398.3,149.6,375.5,117.6,375.5L117.6,375.5z M117.9,401.8c19.2,0,37.3,15.6,37.3,40.6
			c0,24.5-18.1,40.5-37.4,40.5c-21.2,0-38-17.1-38-40.7C79.9,419.1,96.4,401.8,117.9,401.8L117.9,401.8z"/>
	</g>
</g>
</svg>
